<svg width="24" height="24" viewBox="0 0 24 24" fill="none" xmlns="http://www.w3.org/2000/svg">
<g clip-path="url(#clip0_1_254)">
<path d="M15.5157 7.03125C15.5157 7.80647 16.1467 8.4375 16.922 8.4375H21.1024C21.0265 7.44788 20.7969 6.50213 20.4297 5.625H16.922C16.1467 5.625 15.5157 6.25603 15.5157 7.03125Z" fill="#232536"/>
<path d="M6.37509 24H14.8126C15.2012 24 15.5157 23.6855 15.5157 23.2969V19.6875H16.922V15.1172L9.89114 9.84375H3.56259C3.17395 9.84375 2.85947 10.1582 2.85947 10.5469C2.85947 13.0373 3.8805 15.4228 5.67197 17.1428V23.2969C5.67197 23.6855 5.98645 24 6.37509 24Z" fill="#FFD050"/>
<path d="M12.001 0C11.6124 0 11.2979 0.314484 11.2979 0.703125V1.40625H8.35586C8.06463 0.589594 7.29147 0 6.37601 0C5.21285 0 4.26663 0.946219 4.26663 2.10938C4.26663 3.27253 5.21285 4.21875 6.37601 4.21875C7.29147 4.21875 8.06463 3.62916 8.35586 2.8125H11.2979V5.625H4.13712C3.84588 4.80834 3.07273 4.21875 2.15726 4.21875C0.994101 4.21875 0.00100708 5.16497 0.00100708 6.32812C0.00100708 7.49128 0.994101 8.4375 2.15726 8.4375C3.07273 8.4375 3.84588 7.84791 4.13712 7.03125H11.2979V9.14095L18.0476 14.2033C18.2247 14.3358 18.3291 14.5445 18.3291 14.7656V19.6875H19.0323C20.1954 19.6875 21.1416 18.7413 21.1416 17.5781V14.0625H23.2979C23.5574 14.0625 23.7957 13.9197 23.9179 13.691C24.0401 13.4624 24.0264 13.185 23.8829 12.9693L21.7523 9.84375H16.9229C15.3717 9.84375 14.1104 8.58239 14.1104 7.03125C14.1104 5.48011 15.3717 4.21875 16.9229 4.21875H19.6888C18.0618 1.68647 15.2282 0 12.001 0V0Z" fill="#232536"/>
</g>
<defs>
<clipPath id="clip0_1_254">
<rect width="24" height="24" fill="white"/>
</clipPath>
</defs>
</svg>
