<svg width="23" height="24" viewBox="0 0 23 24" fill="none" xmlns="http://www.w3.org/2000/svg">
<g clip-path="url(#clip0_1_265)">
<path d="M5.11521 15.4255H2.53134C1.59954 15.4255 0.841431 16.218 0.841431 17.1922V22.9152C0.841431 23.5135 1.30702 24.0002 1.87923 24.0002H5.76723C6.33948 24.0002 6.80507 23.5135 6.80507 22.9152V17.1923C6.80507 16.2181 6.04701 15.4255 5.11521 15.4255Z" fill="#232536"/>
<path d="M12.6995 11.9491H10.1156C9.18383 11.9491 8.42572 12.7417 8.42572 13.7158V22.9147C8.42572 23.513 8.89131 23.9997 9.46356 23.9997H13.3516C13.9238 23.9997 14.3894 23.513 14.3894 22.9147V13.7158C14.3894 12.7416 13.6313 11.9491 12.6995 11.9491Z" fill="#232536"/>
<path d="M20.4253 7.98882H17.8415C16.9096 7.98882 16.1516 8.78138 16.1516 9.75549V22.9148C16.1516 23.5131 16.6171 23.9998 17.1893 23.9998H21.0773C21.6496 23.9998 22.1151 23.5131 22.1151 22.9148V9.75549C22.1152 8.78138 21.3571 7.98882 20.4253 7.98882Z" fill="#232536"/>
<path d="M18.3679 0.668204C18.0518 0.201141 17.5378 -0.0458437 16.9927 0.00646889L12.1126 0.478501C11.5676 0.531236 11.1057 0.872955 10.8769 1.39266C10.6481 1.91236 10.7002 2.50154 11.0163 2.9686L11.2887 3.37107L5.23158 7.74681L5.22539 7.75136C4.79558 8.06931 4.50997 8.54327 4.42115 9.08584C4.33232 9.62842 4.45087 10.1747 4.755 10.624C5.05913 11.0733 5.51248 11.3719 6.03147 11.4648C6.14392 11.485 6.25651 11.4949 6.36833 11.4949C6.77115 11.4949 7.16351 11.3658 7.49939 11.1184L13.5662 6.73576L13.8475 7.15112C14.1355 7.5767 14.5878 7.81984 15.0781 7.81984C15.1259 7.81984 15.1741 7.8175 15.2226 7.81286C15.7676 7.76012 16.2295 7.41836 16.4583 6.89861L18.5074 2.24414C18.7362 1.72435 18.6841 1.13522 18.3679 0.668204Z" fill="#FFD050"/>
</g>
<defs>
<clipPath id="clip0_1_265">
<rect width="22.9565" height="24" fill="white"/>
</clipPath>
</defs>
</svg>
